  0
SECTION
  2
HEADER
  9
$ACADVER
  1
AC1009
  9
$INSBASE
 10
0.0
 20
0.0
 30
0.0
  9
$EXTMIN
 10
-3.5997478971409751
 20
0.0022802632043749
 30
0.0
  9
$EXTMAX
 10
6.1666673090548318
 20
4.103820150927926
 30
0.0
  9
$LIMMIN
 10
0.0
 20
0.0
  9
$LIMMAX
 10
12.0
 20
9.0
  9
$ORTHOMODE
 70
     0
  9
$REGENMODE
 70
     1
  9
$FILLMODE
 70
     1
  9
$QTEXTMODE
 70
     0
  9
$MIRRTEXT
 70
     0
  9
$DRAGMODE
 70
     2
  9
$LTSCALE
 40
1.0
  9
$OSMODE
 70
  4095
  9
$ATTMODE
 70
     1
  9
$TEXTSIZE
 40
0.2
  9
$TRACEWID
 40
0.05
  9
$TEXTSTYLE
  7
STANDARD
  9
$CLAYER
  8
DIMENSION
  9
$CELTYPE
  6
BYLAYER
  9
$CECOLOR
 62
   256
  9
$DIMSCALE
 40
1.0
  9
$DIMASZ
 40
0.55
  9
$DIMEXO
 40
0.0625
  9
$DIMDLI
 40
0.38
  9
$DIMRND
 40
0.0
  9
$DIMDLE
 40
0.0
  9
$DIMEXE
 40
0.18
  9
$DIMTP
 40
0.0
  9
$DIMTM
 40
0.0
  9
$DIMTXT
 40
0.5300000000000001
  9
$DIMCEN
 40
0.09
  9
$DIMTSZ
 40
0.0
  9
$DIMTOL
 70
     0
  9
$DIMLIM
 70
     0
  9
$DIMTIH
 70
     1
  9
$DIMTOH
 70
     1
  9
$DIMSE1
 70
     0
  9
$DIMSE2
 70
     0
  9
$DIMTAD
 70
     0
  9
$DIMZIN
 70
     0
  9
$DIMBLK
  1

  9
$DIMASO
 70
     1
  9
$DIMSHO
 70
     1
  9
$DIMPOST
  1

  9
$DIMAPOST
  1

  9
$DIMALT
 70
     0
  9
$DIMALTD
 70
     2
  9
$DIMALTF
 40
25.3999999999999986
  9
$DIMLFAC
 40
1.0
  9
$DIMTOFL
 70
     0
  9
$DIMTVP
 40
0.0
  9
$DIMTIX
 70
     0
  9
$DIMSOXD
 70
     0
  9
$DIMSAH
 70
     0
  9
$DIMBLK1
  1

  9
$DIMBLK2
  1

  9
$DIMSTYLE
  2
MYSTANDARD
  9
$DIMCLRD
 70
   256
  9
$DIMCLRE
 70
   256
  9
$DIMCLRT
 70
   256
  9
$DIMTFAC
 40
1.0
  9
$DIMGAP
 40
0.09
  9
$LUNITS
 70
     3
  9
$LUPREC
 70
     2
  9
$SKETCHINC
 40
0.1
  9
$FILLETRAD
 40
0.0
  9
$AUNITS
 70
     0
  9
$AUPREC
 70
     0
  9
$MENU
  1
.
  9
$ELEVATION
 40
0.0
  9
$PELEVATION
 40
0.0
  9
$THICKNESS
 40
0.0
  9
$LIMCHECK
 70
     0
  9
$BLIPMODE
 70
     0
  9
$CHAMFERA
 40
0.0
  9
$CHAMFERB
 40
0.0
  9
$SKPOLY
 70
     0
  9
$TDCREATE
 40
2458147.5865624998696148
  9
$TDUPDATE
 40
2458533.7698842589743435
  9
$TDINDWG
 40
0.1056712963
  9
$TDUSRTIMER
 40
0.1056712963
  9
$USRTIMER
 70
     1
  9
$ANGBASE
 50
0.0
  9
$ANGDIR
 70
     0
  9
$PDMODE
 70
     0
  9
$PDSIZE
 40
0.0
  9
$PLINEWID
 40
0.0
  9
$COORDS
 70
     2
  9
$SPLFRAME
 70
     0
  9
$SPLINETYPE
 70
     6
  9
$SPLINESEGS
 70
     8
  9
$ATTDIA
 70
     1
  9
$ATTREQ
 70
     1
  9
$HANDLING
 70
     1
  9
$HANDSEED
  5
116B
  9
$SURFTAB1
 70
     6
  9
$SURFTAB2
 70
     6
  9
$SURFTYPE
 70
     6
  9
$SURFU
 70
     6
  9
$SURFV
 70
     6
  9
$UCSNAME
  2

  9
$UCSORG
 10
0.0
 20
0.0
 30
0.0
  9
$UCSXDIR
 10
1.0
 20
0.0
 30
0.0
  9
$UCSYDIR
 10
0.0
 20
1.0
 30
0.0
  9
$PUCSNAME
  2

  9
$PUCSORG
 10
0.0
 20
0.0
 30
0.0
  9
$PUCSXDIR
 10
1.0
 20
0.0
 30
0.0
  9
$PUCSYDIR
 10
0.0
 20
1.0
 30
0.0
  9
$USERI1
 70
     0
  9
$USERI2
 70
     0
  9
$USERI3
 70
     0
  9
$USERI4
 70
     0
  9
$USERI5
 70
     0
  9
$USERR1
 40
0.0
  9
$USERR2
 40
0.0
  9
$USERR3
 40
0.0
  9
$USERR4
 40
0.0
  9
$USERR5
 40
0.0
  9
$WORLDVIEW
 70
     1
  9
$SHADEDGE
 70
     3
  9
$SHADEDIF
 70
    70
  9
$TILEMODE
 70
     1
  9
$MAXACTVP
 70
    64
  9
$PLIMCHECK
 70
     0
  9
$PEXTMIN
 10
0.0008555939311456
 20
-0.0004491678936362
 30
0.0
  9
$PEXTMAX
 10
10.5008916754224693
 20
8.0036984414315882
 30
0.0
  9
$PLIMMIN
 10
-0.2500002402958907
 20
-0.2499999962453767
  9
$PLIMMAX
 10
10.7499995194082203
 20
8.2499997634587334
  9
$UNITMODE
 70
     0
  9
$VISRETAIN
 70
     1
  9
$PLINEGEN
 70
     0
  9
$PSLTSCALE
 70
     1
  0
ENDSEC
  0
SECTION
  2
TABLES
  0
TABLE
  2
VPORT
 70
     1
  0
VPORT
  2
*ACTIVE
 70
     0
 10
0.0
 20
0.0
 11
1.0
 21
1.0
 12
0.6582976380633064
 22
0.2194171560686993
 13
0.0
 23
0.0
 14
0.5
 24
0.5
 15
0.5
 25
0.5
 16
0.0
 26
0.0
 36
1.0
 17
0.0
 27
0.0
 37
0.0
 40
12.1797124436865793
 41
1.9560655737704911
 42
50.0
 43
0.0
 44
0.0
 50
0.0
 51
0.0
 71
     0
 72
  1000
 73
     1
 74
     3
 75
     0
 76
     1
 77
     0
 78
     0
  0
ENDTAB
  0
TABLE
  2
LTYPE
 70
     3
  0
LTYPE
  2
CONTINUOUS
 70
     0
  3
Solid line
 72
    65
 73
     0
 40
0.0
  0
LTYPE
  2
ACAD_ISO02W100
 70
     0
  3
ISO dash __ __ __ __ __ __ __ __ __ __ __ __ __
 72
    65
 73
     2
 40
15.0
 49
12.0
 49
-3.0
  0
ENDTAB
  0
TABLE
  2
LAYER
 70
     3
  0
LAYER
  2
0
 70
     0
 62
     7
  6
CONTINUOUS
  0
LAYER
  2
DIMENSION
 70
     0
 62
    40
  6
ACAD_ISO02W100
  0
LAYER
  2
DEFPOINTS
 70
     0
 62
     7
  6
CONTINUOUS
  0
ENDTAB
  0
TABLE
  2
STYLE
 70
     3
  0
STYLE
  2
STANDARD
 70
     0
 40
0.0
 41
1.0
 50
0.0
 71
     0
 42
0.2
  3
txt
  4

  0
STYLE
  2
ANNOTATIVE
 70
     0
 40
0.0
 41
1.0
 50
0.0
 71
     0
 42
0.2
  3
txt
  4

  0
STYLE
  2

 70
     1
 40
0.0
 41
1.0
 50
0.0
 71
     0
 42
0.2
  3
ltypeshp.shx
  4

  0
ENDTAB
  0
TABLE
  2
VIEW
 70
     1
  0
ENDTAB
  0
TABLE
  2
UCS
 70
     0
  0
ENDTAB
  0
TABLE
  2
APPID
 70
    18
  0
APPID
  2
ACAD
 70
     0
  0
APPID
  2
ACADANNOPO
 70
     0
  0
APPID
  2
ACADANNOTATIVE
 70
     0
  0
APPID
  2
ACAD_DSTYLE_DIMJAG
 70
     0
  0
APPID
  2
ACAD_DSTYLE_DIMTALN
 70
     0
  0
APPID
  2
ACAD_MLEADERVER
 70
     0
  0
APPID
  2
ACAD_NAV_VCDISPLAY
 70
     0
  0
APPID
  2
ACAD_PSEXT
 70
     0
  0
APPID
  2
ACAD_EXEMPT_FROM_CAD_STANDARDS
 70
     0
  0
APPID
  2
ACADANNOAV
 70
     0
  0
APPID
  2
ACAUTHENVIRON
 70
     0
  0
APPID
  2
ACDBDYNAMICBLOCKTRUENAME
 70
     0
  0
APPID
  2
ACDBDYNAMICBLOCKGUID
 70
     0
  0
APPID
  2
ACAECLAYERSTANDARD
 70
     0
  0
APPID
  2
ACCMTRANSPARENCY
 70
     0
  0
APPID
  2
ACAD_DSTYLE_DIMBREAK
 70
     0
  0
APPID
  2
ACAD_DSTYLE_DIMRADIAL_EXTENSION
 70
     0
  0
APPID
  2
CONTENTBLOCKICON
 70
     0
  0
ENDTAB
  0
TABLE
  2
DIMSTYLE
 70
     4
  0
DIMSTYLE
  2
STANDARD
 70
     0
  3

  4

  5

  6

  7

 40
1.0
 41
0.18
 42
0.0625
 43
0.38
 44
0.18
 45
0.0
 46
0.0
 47
0.0
 48
0.0
140
0.18
141
0.09
142
0.0
143
25.3999999999999986
144
1.0
145
0.0
146
1.0
147
0.09
 71
     0
 72
     0
 73
     1
 74
     1
 75
     0
 76
     0
 77
     0
 78
     0
170
     0
171
     2
172
     0
173
     0
174
     0
175
     0
176
     0
177
     0
178
     0
  0
DIMSTYLE
  2
ANNOTATIVE
 70
     0
  3

  4

  5

  6

  7

 40
0.0
 41
0.18
 42
0.0625
 43
0.38
 44
0.18
 45
0.0
 46
0.0
 47
0.0
 48
0.0
140
0.18
141
0.09
142
0.0
143
25.3999999999999986
144
1.0
145
0.0
146
1.0
147
0.09
 71
     0
 72
     0
 73
     1
 74
     1
 75
     0
 76
     0
 77
     0
 78
     0
170
     0
171
     2
172
     0
173
     0
174
     0
175
     0
176
     0
177
     0
178
     0
  0
DIMSTYLE
  2
MYSTANDARD
 70
     0
  3

  4

  5

  6

  7

 40
1.0
 41
0.55
 42
0.0625
 43
0.38
 44
0.18
 45
0.0
 46
0.0
 47
0.0
 48
0.0
140
0.5300000000000001
141
0.09
142
0.0
143
25.3999999999999986
144
1.0
145
0.0
146
1.0
147
0.09
 71
     0
 72
     0
 73
     1
 74
     1
 75
     0
 76
     0
 77
     0
 78
     0
170
     0
171
     2
172
     0
173
     0
174
     0
175
     0
176
   256
177
   256
178
   256
  0
ENDTAB
  0
ENDSEC
  0
SECTION
  2
BLOCKS
  0
BLOCK
  8
0
  2
$MODEL_SPACE
 70
     0
 10
0.0
 20
0.0
 30
0.0
  3
$MODEL_SPACE
  1

  0
ENDBLK
  5
21
  8
0
  0
BLOCK
 67
     1
  8
0
  2
$PAPER_SPACE
 70
     0
 10
0.0
 20
0.0
 30
0.0
  3
$PAPER_SPACE
  1

  0
ENDBLK
  5
5B
 67
     1
  8
0
  0
BLOCK
  8
0
  2
BASIC_BLOCK
 70
     0
 10
0.0
 20
0.0
 30
0.0
  3
BASIC_BLOCK
  1

  0
POLYLINE
  5
4BF
  8
0
 66
     1
 10
0.0
 20
0.0
 30
0.0
 70
     1
  0
VERTEX
  5
1123
  8
0
 10
3.6081681861754098
 20
0.8978617836238171
 30
0.0
  0
VERTEX
  5
1124
  8
0
 10
10.5008916754224693
 20
0.8978617836238171
 30
0.0
  0
VERTEX
  5
1125
  8
0
 10
10.5008916754224693
 20
-0.0004491678936362
 30
0.0
  0
VERTEX
  5
1126
  8
0
 10
3.6081681861754098
 20
-0.0004491678936362
 30
0.0
  0
SEQEND
  5
1127
  8
0
  0
LINE
  5
4C0
  8
0
 10
4.1918613186821068
 20
-0.0004491678936362
 30
0.0
 11
10.5008916754224693
 21
-0.0004491678936362
 31
0.0
  0
POLYLINE
  5
4C1
  8
0
 66
     1
 10
0.0
 20
0.0
 30
0.0
  0
VERTEX
  5
1128
  8
0
 10
7.3463764970522902
 20
-0.0004491678936362
 30
0.0
  0
VERTEX
  5
1129
  8
0
 10
3.6081681861754098
 20
0.0022478609799626
 30
0.0
  0
VERTEX
  5
112A
  8
0
 10
3.6081681861754098
 20
0.900558812497416
 30
0.0
  0
VERTEX
  5
112B
  8
0
 10
7.3463764970522902
 20
0.8978617836238171
 30
0.0
  0
VERTEX
  5
112C
  8
0
 10
7.3463764970522902
 20
0.4487063078650905
 30
0.0
  0
SEQEND
  5
112D
  8
0
  0
LINE
  5
4C2
  8
0
 10
3.596558219937378
 20
0.4487063078650906
 30
0.0
 11
7.3463764970522902
 21
0.4487063078650905
 31
0.0
  0
LINE
  5
4C3
  8
0
 10
7.3463764970522902
 20
0.4487063078650905
 30
0.0
 11
10.5008916754224693
 21
0.4487063078650905
 31
0.0
  0
LINE
  5
4C4
  8
0
 10
6.1636486008775933
 20
0.4487063078650906
 30
0.0
 11
6.1636486008775933
 21
-0.0004491678936362
 31
0.0
  0
LINE
  5
4C5
  8
0
 10
8.5448309803233755
 20
0.4487063078650905
 30
0.0
 11
8.5448309803233755
 21
-0.0004491678936362
 31
0.0
  0
INSERT
  5
4C7
  8
DIMENSION
  2
*U3
 10
0.0
 20
0.0
 30
0.0
  0
INSERT
  5
4CC
  8
DIMENSION
  2
*U4
 10
0.0
 20
0.0
 30
0.0
  0
INSERT
  5
4D1
  8
DIMENSION
  2
*U5
 10
0.0
 20
0.0
 30
0.0
  0
INSERT
  5
4D6
  8
DIMENSION
  2
*U6
 10
0.0
 20
0.0
 30
0.0
  0
INSERT
  5
4DB
  8
DIMENSION
  2
*U7
 10
0.0
 20
0.0
 30
0.0
  0
ENDBLK
  5
374
  8
0
  0
BLOCK
  8
0
  2
*U3
 70
     1
 10
0.0
 20
0.0
 30
0.0
  3
*U3
  1

  0
TEXT
  5
112F
  8
0
 10
4.6805371541427832
 20
0.5271151436227346
 30
0.0
 40
0.2
  1
Hulsey_Lab2
  0
ENDBLK
  5
1131
  8
0
  0
BLOCK
  8
0
  2
*U4
 70
     1
 10
0.0
 20
0.0
 30
0.0
  3
*U4
  1

  0
TEXT
  5
1133
  8
0
 10
8.1767740959608854
 20
0.528771057938841
 30
0.0
 40
0.2
  1
Nick Hulsey
  0
ENDBLK
  5
1135
  8
0
  0
BLOCK
  8
0
  2
*U5
 70
     1
 10
0.0
 20
0.0
 30
0.0
  3
*U5
  1

  0
TEXT
  5
1137
  8
0
 10
3.9848177905410309
 20
0.0881504765105314
 30
0.0
 40
0.2
  1
GE 1501/1502
  0
ENDBLK
  5
1139
  8
0
  0
BLOCK
  8
0
  2
*U6
 70
     1
 10
0.0
 20
0.0
 30
0.0
  3
*U6
  1

  0
TEXT
  5
113B
  8
0
 10
6.7236756813687251
 20
0.0885353920204537
 30
0.0
 40
0.2
  1
1/20/2018
  0
ENDBLK
  5
113D
  8
0
  0
BLOCK
  8
0
  2
*U7
 70
     1
 10
0.0
 20
0.0
 30
0.0
  3
*U7
  1

  0
TEXT
  5
113F
  8
0
 10
8.6678837906917252
 20
0.0735146545696289
 30
0.0
 40
0.15
  1
11:45am - 1:25pm
  0
ENDBLK
  5
1141
  8
0
  0
ENDSEC
  0
SECTION
  2
ENTITIES
  0
ARC
  5
999
  8
DIMENSION
 10
2.6646235023973639
 20
0.839215091570273
 30
0.0
 40
3.0288370010705958
 50
353.1085708851193772
 51
353.4247360089768222
  0
POLYLINE
  5
A74
  8
DIMENSION
 66
     1
 10
0.0
 20
0.0
 30
0.0
 70
     1
  0
VERTEX
  5
1142
  8
DIMENSION
 10
0.0060703833926075
 20
0.0026270263064857
 30
0.0
  0
VERTEX
  5
1143
  8
DIMENSION
 10
5.6874609105007359
 20
0.0026270263064857
 30
0.0
  0
VERTEX
  5
1144
  8
DIMENSION
 10
5.6874609105007359
 20
3.7887999473640752
 30
0.0
  0
VERTEX
  5
1145
  8
DIMENSION
 10
0.0060703833926075
 20
3.7887999473640752
 30
0.0
  0
SEQEND
  5
1146
  8
DIMENSION
  0
POLYLINE
  5
B65
  8
DIMENSION
 66
     1
 10
0.0
 20
0.0
 30
0.0
 70
     1
  0
VERTEX
  5
1147
  8
DIMENSION
 10
0.1173006758858133
 20
0.1985956072115585
 30
0.0
 42
0.1334038586771449
  0
VERTEX
  5
1148
  8
DIMENSION
 10
0.2757456377746705
 20
0.0321136971119204
 30
0.0
 42
0.1345210193133416
  0
VERTEX
  5
1149
  8
DIMENSION
 10
0.5968308236676431
 20
0.0170323565462191
 30
0.0
 42
0.1524775623217375
  0
VERTEX
  5
114A
  8
DIMENSION
 10
1.164232382644131
 20
0.3653770973548189
 30
0.0
 42
-0.0770272232328396
  0
VERTEX
  5
114B
  8
DIMENSION
 10
1.834123683161776
 20
0.925171896624237
 30
0.0
 42
-0.1262964848168329
  0
VERTEX
  5
114C
  8
DIMENSION
 10
2.233519068085454
 20
1.0373010563648251
 30
0.0
 42
-0.0282504436297429
  0
VERTEX
  5
114D
  8
DIMENSION
 10
2.8497654434302859
 20
1.067059775798205
 30
0.0
 42
-0.0282504436297429
  0
VERTEX
  5
114E
  8
DIMENSION
 10
3.4660118187751161
 20
1.0373010563648251
 30
0.0
 42
-0.1262964848168284
  0
VERTEX
  5
114F
  8
DIMENSION
 10
3.8654072036987799
 20
0.9251718966242449
 30
0.0
 42
-0.0775042607362889
  0
VERTEX
  5
1150
  8
DIMENSION
 10
4.538863349539052
 20
0.3613125368442563
 30
0.0
 42
0.1512396539970664
  0
VERTEX
  5
1151
  8
DIMENSION
 10
5.1027000631928896
 20
0.017032356546227
 30
0.0
 42
0.1345210193133567
  0
VERTEX
  5
1152
  8
DIMENSION
 10
5.4237852490858982
 20
0.0321136971119204
 30
0.0
 42
0.1334038586771183
  0
VERTEX
  5
1153
  8
DIMENSION
 10
5.5822302109747532
 20
0.1985956072115528
 30
0.0
 42
0.107749977794479
  0
VERTEX
  5
1154
  8
DIMENSION
 10
5.688270909112461
 20
0.6619865980389019
 30
0.0
 42
0.0303841377244794
  0
VERTEX
  5
1155
  8
DIMENSION
 10
5.6874609105007359
 20
1.02976058016869
 30
0.0
 42
0.1006306774161294
  0
VERTEX
  5
1156
  8
DIMENSION
 10
5.1192804376825896
 20
3.3005368809852209
 30
0.0
 42
0.287437040823778
  0
VERTEX
  5
1157
  8
DIMENSION
 10
4.3081617723260788
 20
3.788654686069667
 30
0.0
  0
VERTEX
  5
1158
  8
DIMENSION
 10
4.2106963911826218
 20
3.788654686069667
 30
0.0
 42
0.0980403794884608
  0
VERTEX
  5
1159
  8
DIMENSION
 10
3.652113206657591
 20
3.6031624752591549
 30
0.0
 42
-0.118137145682893
  0
VERTEX
  5
115A
  8
DIMENSION
 10
3.2206116764762949
 20
3.5086626959525238
 30
0.0
  0
VERTEX
  5
115B
  8
DIMENSION
 10
2.4789192103842721
 20
3.5086626959525238
 30
0.0
 42
-0.118137145682893
  0
VERTEX
  5
115C
  8
DIMENSION
 10
2.0474176802029782
 20
3.6031624752591549
 30
0.0
 42
0.0980403794884609
  0
VERTEX
  5
115D
  8
DIMENSION
 10
1.4888344956779469
 20
3.788654686069667
 30
0.0
  0
VERTEX
  5
115E
  8
DIMENSION
 10
1.3913691145344891
 20
3.788654686069667
 30
0.0
 42
0.2874370408237779
  0
VERTEX
  5
115F
  8
DIMENSION
 10
0.5802504491779882
 20
3.30053688098524
 30
0.0
 42
0.1006306774161294
  0
VERTEX
  5
1160
  8
DIMENSION
 10
0.0120699763598329
 20
1.0297605801686891
 30
0.0
 42
0.0303841377244766
  0
VERTEX
  5
1161
  8
DIMENSION
 10
0.0112599777481068
 20
0.6619865980389477
 30
0.0
 42
0.107749977794479
  0
SEQEND
  5
1162
  8
DIMENSION
  0
POLYLINE
  5
CD4
  8
DIMENSION
 66
     1
 10
0.0
 20
0.0
 30
0.0
 70
     1
  0
VERTEX
  5
1166
  8
DIMENSION
 10
1.641785871338413
 20
1.8037375457137761
 30
0.0
  0
VERTEX
  5
1167
  8
DIMENSION
 10
3.911785871338413
 20
1.8037375457137761
 30
0.0
  0
VERTEX
  5
1168
  8
DIMENSION
 10
3.911785871338413
 20
3.3637375457137759
 30
0.0
  0
VERTEX
  5
1169
  8
DIMENSION
 10
1.641785871338413
 20
3.3637375457137759
 30
0.0
  0
SEQEND
  5
116A
  8
DIMENSION
  0
VIEWPORT
  5
200
 67
     1
  8
0
 10
6.0228102686499048
 20
3.1537377176626649
 30
0.0
 40
19.8879594139783293
 41
10.1673275582691804
 68
     1
 69
     1
1001
ACAD
1000
MVIEW
1002
{
1070
    16
1010
0.0
1020
0.0
1030
0.0
1010
0.0
1020
0.0
1030
1.0
1040
0.0
1040
10.1673275582691804
1040
6.0228102686499048
1040
3.1537377176626649
1040
50.0
1040
0.0
1040
0.0
1070
     0
1070
  1000
1070
     1
1070
     1
1070
     0
1070
     0
1070
     0
1070
     0
1040
0.0
1040
0.0
1040
0.0
1040
0.5
1040
0.5
1040
0.5
1040
0.5
1070
     0
1002
{
1002
}
1002
}
  0
VIEWPORT
  5
205
 67
     1
  8
0
 10
5.2508736346768092
 20
4.4507801125277018
 30
0.0
 40
10.5000360814913307
 41
7.1058366578077701
 68
     2
 69
     2
1001
ACAD
1000
MVIEW
1002
{
1070
    16
1010
0.0
1020
0.0
1030
0.0
1010
0.0
1020
0.0
1030
1.0
1040
0.0
1040
6.4183966549943969
1040
2.0423831377062478
1040
3.7302039077701261
1040
50.0
1040
0.0
1040
0.0
1070
     0
1070
  1000
1070
     1
1070
     3
1070
     0
1070
     1
1070
     0
1070
     0
1040
0.0
1040
0.0
1040
0.0
1040
0.5
1040
0.5
1040
0.5
1040
0.5
1070
     0
1002
{
1002
}
1002
}
  0
INSERT
  5
382
 67
     1
  8
0
  2
BASIC_BLOCK
 10
0.0
 20
0.0
 30
0.0
  0
ENDSEC
  0
EOF
